<?xml version="1.0" encoding="utf-8"?>
<!-- Generator: Adobe Illustrator 26.1.0, SVG Export Plug-In . SVG Version: 6.00 Build 0)  -->
<svg version="1.1" id="Layer_1" xmlns="http://www.w3.org/2000/svg" xmlns:xlink="http://www.w3.org/1999/xlink" x="0px" y="0px" width="204.1" height="42.9"
	 viewBox="0 0 204.1 42.9" style="enable-background:new 0 0 204.1 42.9;" xml:space="preserve">
<style type="text/css">
	.st0{fill:url(#SVGID_1_);}
	.st1{fill:url(#SVGID_00000016073024535496963070000010906812950684743311_);}
	.st2{fill:#FFFFFF;}
</style>
<g id="BACKGROUND">
</g>
<linearGradient id="SVGID_1_" gradientUnits="userSpaceOnUse" x1="41.2196" y1="3.2549" x2="4.264" y2="27.4041" gradientTransform="matrix(1 0 0 -1 3.931046e-02 44.8922)">
	<stop  offset="0" style="stop-color:#FFA239"/>
	<stop  offset="0.1212" style="stop-color:#FF983F"/>
	<stop  offset="0.3307" style="stop-color:#FF7C4E"/>
	<stop  offset="0.6033" style="stop-color:#FF4E68"/>
	<stop  offset="0.9252" style="stop-color:#FF108A"/>
	<stop  offset="1" style="stop-color:#FF0093"/>
</linearGradient>
<path class="st0" d="M28.4,39.6H11.7C6.1,39.6,1.5,35,1.5,29.3v-3.1c0-5.7,4.6-10.3,10.3-10.3h16.6c5.7,0,10.3,4.6,10.3,10.3v3.1
	C38.7,35,34.1,39.6,28.4,39.6z"/>
<linearGradient id="SVGID_00000000185941608933089010000012298050651999030926_" gradientUnits="userSpaceOnUse" x1="38.8058" y1="1497.0173" x2="-7.1041" y2="1528.1704" gradientTransform="matrix(1 0 0 1 3.931046e-02 -1497.9465)">
	<stop  offset="0" style="stop-color:#26FFFF"/>
	<stop  offset="1" style="stop-color:#006DFF"/>
</linearGradient>
<path style="fill:url(#SVGID_00000000185941608933089010000012298050651999030926_);" d="M21.1,26.2H1.5V11.1c0-4.3,3.5-7.9,7.9-7.9
	h11.8c6.3,0,11.5,5.1,11.5,11.5l0,0C32.6,21.1,27.4,26.2,21.1,26.2z"/>
<g>
	<path class="st2" d="M47.4,34.7V8.9h9.4c1.8,0,3.3,0.3,4.5,0.9c1.2,0.6,2.1,1.4,2.7,2.4c0.6,1,0.9,2.2,0.9,3.4c0,1.1-0.2,2-0.6,2.7
		c-0.4,0.7-0.9,1.3-1.6,1.8c-0.7,0.4-1.4,0.8-2.2,1v0.3c0.9,0,1.7,0.3,2.5,0.8c0.8,0.5,1.5,1.2,2,2.2c0.5,0.9,0.8,2.1,0.8,3.4
		c0,1.3-0.3,2.5-0.9,3.5c-0.6,1-1.6,1.9-2.9,2.5c-1.3,0.6-2.9,0.9-4.9,0.9L47.4,34.7L47.4,34.7z M51.3,20h5.2c0.9,0,1.7-0.2,2.4-0.5
		c0.7-0.3,1.3-0.8,1.7-1.4c0.4-0.6,0.6-1.3,0.6-2.2c0-1.1-0.4-2-1.1-2.7c-0.7-0.7-1.9-1.1-3.4-1.1h-5.3L51.3,20L51.3,20z M51.3,31.3
		h5.6c1.9,0,3.2-0.4,4-1.1c0.8-0.7,1.2-1.6,1.2-2.7c0-0.8-0.2-1.6-0.6-2.2c-0.4-0.7-1-1.2-1.8-1.6c-0.8-0.4-1.7-0.6-2.7-0.6h-5.7
		V31.3z"/>
	<path class="st2" d="M70.6,34.7V8.9h3.9v22.4h11.7v3.3L70.6,34.7L70.6,34.7z"/>
	<path class="st2" d="M107.1,8.9h3.9v16.9c0,1.8-0.4,3.4-1.3,4.8c-0.8,1.4-2,2.5-3.6,3.3s-3.3,1.2-5.4,1.2c-2.1,0-3.8-0.4-5.4-1.2
		s-2.7-1.9-3.6-3.3c-0.8-1.4-1.3-3-1.3-4.8V8.9h3.9v16.6c0,1.2,0.3,2.2,0.8,3.1c0.5,0.9,1.3,1.6,2.2,2.1c0.9,0.5,2.1,0.8,3.4,0.8
		c1.3,0,2.4-0.3,3.4-0.8c1-0.5,1.7-1.2,2.2-2.1c0.5-0.9,0.8-1.9,0.8-3.1L107.1,8.9L107.1,8.9z"/>
	<path class="st2" d="M116.6,34.7V8.9h16.1v3.3h-12.3v7.8h11.4v3.3h-11.4v7.9h12.4v3.3L116.6,34.7L116.6,34.7z"/>
	<path class="st2" d="M138,34.7V8.9h3.9v12.3h0.3l10.8-12.3h4.9l-10.4,11.6l10.4,14.2h-4.7l-8.3-11.5l-3,3.5v8L138,34.7L138,34.7z"
		/>
	<path class="st2" d="M161.5,34.7V8.9h16.1v3.3h-12.3v7.8h11.4v3.3h-11.4v7.9h12.4v3.3L161.5,34.7L161.5,34.7z"/>
	<path class="st2" d="M181.5,12.3V8.9h19.9v3.3h-8v22.4h-3.9V12.3H181.5z"/>
</g>
</svg>
